<mxfile host="app.diagrams.net" modified="2021-01-30T00:51:00.196Z" agent="5.0 (Windows NT 10.0; Win64; x64) AppleWebKit/537.36 (KHTML, like Gecko) Chrome/88.0.4324.104 Safari/537.36" etag="pKGcssN3RT8QGtWw0t0H" version="14.2.7" type="github" pages="7">
  <diagram name="Page-1" id="03018318-947c-dd8e-b7a3-06fadd420f32">
    <mxGraphModel dx="1268" dy="784" grid="1" gridSize="10" guides="1" tooltips="1" connect="1" arrows="1" fold="1" page="1" pageScale="1" pageWidth="1100" pageHeight="850" background="#ffffff" math="0" shadow="0">
      <root>
        <mxCell id="0" />
        <mxCell id="1" parent="0" />
        <mxCell id="677b7b8949515195-1" value="" style="whiteSpace=wrap;html=1;rounded=0;shadow=0;labelBackgroundColor=none;strokeColor=#000000;strokeWidth=1;fillColor=none;fontFamily=Verdana;fontSize=12;fontColor=#000000;align=center;comic=1;" parent="1" vertex="1">
          <mxGeometry x="20" y="20" width="1060" height="810" as="geometry" />
        </mxCell>
        <mxCell id="677b7b8949515195-2" value="LOGO" style="whiteSpace=wrap;html=1;rounded=0;shadow=0;labelBackgroundColor=none;strokeWidth=1;fontFamily=Verdana;fontSize=28;align=center;comic=1;" parent="1" vertex="1">
          <mxGeometry x="40" y="60" width="190" height="50" as="geometry" />
        </mxCell>
        <mxCell id="677b7b8949515195-3" value="Search" style="strokeWidth=1;shadow=0;dashed=0;align=center;html=1;shape=mxgraph.mockup.forms.searchBox;strokeColor=#999999;mainText=;strokeColor2=#008cff;fontColor=#666666;fontSize=17;align=left;spacingLeft=3;rounded=0;labelBackgroundColor=none;comic=1;" parent="1" vertex="1">
          <mxGeometry x="840" y="95" width="220" height="30" as="geometry" />
        </mxCell>
        <mxCell id="677b7b8949515195-4" value="Topic 1" style="text;html=1;points=[];align=left;verticalAlign=top;spacingTop=-4;fontSize=14;fontFamily=Verdana" parent="1" vertex="1">
          <mxGeometry x="780" y="40" width="60" height="20" as="geometry" />
        </mxCell>
        <mxCell id="677b7b8949515195-5" value="Topic 2" style="text;html=1;points=[];align=left;verticalAlign=top;spacingTop=-4;fontSize=14;fontFamily=Verdana" parent="1" vertex="1">
          <mxGeometry x="860" y="40" width="60" height="20" as="geometry" />
        </mxCell>
        <mxCell id="677b7b8949515195-6" value="Topic 3" style="text;html=1;points=[];align=left;verticalAlign=top;spacingTop=-4;fontSize=14;fontFamily=Verdana" parent="1" vertex="1">
          <mxGeometry x="930" y="40" width="60" height="20" as="geometry" />
        </mxCell>
        <mxCell id="677b7b8949515195-7" value="Topic 4" style="text;html=1;points=[];align=left;verticalAlign=top;spacingTop=-4;fontSize=14;fontFamily=Verdana" parent="1" vertex="1">
          <mxGeometry x="1000" y="40" width="60" height="20" as="geometry" />
        </mxCell>
        <mxCell id="677b7b8949515195-8" value="" style="whiteSpace=wrap;html=1;rounded=0;shadow=0;labelBackgroundColor=none;strokeWidth=1;fillColor=none;fontFamily=Verdana;fontSize=12;align=center;comic=1;" parent="1" vertex="1">
          <mxGeometry x="30" y="230" width="200" height="590" as="geometry" />
        </mxCell>
        <mxCell id="677b7b8949515195-9" value="" style="line;strokeWidth=1;html=1;rounded=0;shadow=0;labelBackgroundColor=none;fillColor=none;fontFamily=Verdana;fontSize=14;fontColor=#000000;align=center;comic=1;" parent="1" vertex="1">
          <mxGeometry x="20" y="140" width="1060" height="10" as="geometry" />
        </mxCell>
        <mxCell id="677b7b8949515195-10" value="" style="whiteSpace=wrap;html=1;rounded=0;shadow=0;labelBackgroundColor=none;strokeWidth=1;fillColor=none;fontFamily=Verdana;fontSize=12;align=center;comic=1;" parent="1" vertex="1">
          <mxGeometry x="30" y="160" width="1040" height="50" as="geometry" />
        </mxCell>
        <mxCell id="677b7b8949515195-11" value="Section 1" style="text;html=1;points=[];align=left;verticalAlign=top;spacingTop=-4;fontSize=14;fontFamily=Verdana" parent="1" vertex="1">
          <mxGeometry x="330" y="175" width="60" height="20" as="geometry" />
        </mxCell>
        <mxCell id="677b7b8949515195-12" value="Section 2" style="text;html=1;points=[];align=left;verticalAlign=top;spacingTop=-4;fontSize=14;fontFamily=Verdana" parent="1" vertex="1">
          <mxGeometry x="477" y="175" width="60" height="20" as="geometry" />
        </mxCell>
        <mxCell id="677b7b8949515195-13" value="Section 3" style="text;html=1;points=[];align=left;verticalAlign=top;spacingTop=-4;fontSize=14;fontFamily=Verdana" parent="1" vertex="1">
          <mxGeometry x="623" y="175" width="60" height="20" as="geometry" />
        </mxCell>
        <mxCell id="677b7b8949515195-14" value="Section 4" style="text;html=1;points=[];align=left;verticalAlign=top;spacingTop=-4;fontSize=14;fontFamily=Verdana" parent="1" vertex="1">
          <mxGeometry x="770" y="175" width="60" height="20" as="geometry" />
        </mxCell>
        <mxCell id="677b7b8949515195-15" value="&lt;div style=&quot;text-align: justify&quot;&gt;&lt;span&gt;Lorem ipsum dolor sit amet, consectetur adipisicing elit, sed do eiusmod tempor incididunt ut labore et dolore magna aliqua. Ut enim ad minim veniam, quis nostrud exercitation ullamco laboris nisi ut aliquip ex ea commodo consequat. Duis aute irure dolor in reprehenderit in voluptate velit esse cillum dolore eu fugiat nulla pariatur. Excepteur sint occaecat cupidatat non proident, sunt in culpa qui officia deserunt mollit anim id est laborum.&lt;/span&gt;&lt;/div&gt;&lt;div style=&quot;text-align: justify&quot;&gt;&lt;span&gt;Sed ut perspiciatis unde omnis iste natus error sit voluptatem accusantium doloremque laudantium, totam rem aperiam, eaque ipsa quae ab illo inventore veritatis et quasi architecto beatae vitae dicta sunt explicabo. Nemo enim ipsam voluptatem quia voluptas sit aspernatur aut odit aut fugit, sed quia consequuntur magni dolores eos qui ratione voluptatem sequi nesciunt.&amp;nbsp;&lt;/span&gt;&lt;/div&gt;" style="whiteSpace=wrap;html=1;rounded=0;shadow=0;labelBackgroundColor=none;strokeWidth=1;fillColor=none;fontFamily=Verdana;fontSize=12;align=center;verticalAlign=top;spacing=10;comic=1;" parent="1" vertex="1">
          <mxGeometry x="250" y="640" width="580" height="180" as="geometry" />
        </mxCell>
        <mxCell id="677b7b8949515195-16" value="" style="verticalLabelPosition=bottom;shadow=0;dashed=0;align=center;html=1;verticalAlign=top;strokeWidth=1;shape=mxgraph.mockup.graphics.simpleIcon;strokeColor=#999999;rounded=0;labelBackgroundColor=none;fontFamily=Verdana;fontSize=14;fontColor=#000000;comic=1;" parent="1" vertex="1">
          <mxGeometry x="250" y="230" width="580" height="400" as="geometry" />
        </mxCell>
        <mxCell id="677b7b8949515195-25" value="" style="whiteSpace=wrap;html=1;rounded=0;shadow=0;labelBackgroundColor=none;strokeWidth=1;fillColor=none;fontFamily=Verdana;fontSize=12;align=center;comic=1;" parent="1" vertex="1">
          <mxGeometry x="840" y="230" width="230" height="400" as="geometry" />
        </mxCell>
        <mxCell id="677b7b8949515195-26" value="" style="whiteSpace=wrap;html=1;rounded=0;shadow=0;labelBackgroundColor=none;strokeWidth=1;fillColor=none;fontFamily=Verdana;fontSize=12;align=center;comic=1;" parent="1" vertex="1">
          <mxGeometry x="840" y="640" width="230" height="180" as="geometry" />
        </mxCell>
        <mxCell id="677b7b8949515195-27" value="Section 1" style="text;html=1;points=[];align=left;verticalAlign=top;spacingTop=-4;fontSize=14;fontFamily=Verdana" parent="1" vertex="1">
          <mxGeometry x="40" y="250" width="170" height="20" as="geometry" />
        </mxCell>
        <mxCell id="677b7b8949515195-28" value="Section 2" style="text;html=1;points=[];align=left;verticalAlign=top;spacingTop=-4;fontSize=14;fontFamily=Verdana" parent="1" vertex="1">
          <mxGeometry x="40" y="286" width="170" height="20" as="geometry" />
        </mxCell>
        <mxCell id="677b7b8949515195-29" value="Section 3" style="text;html=1;points=[];align=left;verticalAlign=top;spacingTop=-4;fontSize=14;fontFamily=Verdana" parent="1" vertex="1">
          <mxGeometry x="40" y="321" width="170" height="20" as="geometry" />
        </mxCell>
        <mxCell id="677b7b8949515195-30" value="Section 4" style="text;html=1;points=[];align=left;verticalAlign=top;spacingTop=-4;fontSize=14;fontFamily=Verdana" parent="1" vertex="1">
          <mxGeometry x="40" y="357" width="170" height="20" as="geometry" />
        </mxCell>
        <mxCell id="677b7b8949515195-31" value="Section 7" style="text;html=1;points=[];align=left;verticalAlign=top;spacingTop=-4;fontSize=14;fontFamily=Verdana" parent="1" vertex="1">
          <mxGeometry x="40" y="464" width="170" height="20" as="geometry" />
        </mxCell>
        <mxCell id="677b7b8949515195-32" value="Section 8" style="text;html=1;points=[];align=left;verticalAlign=top;spacingTop=-4;fontSize=14;fontFamily=Verdana" parent="1" vertex="1">
          <mxGeometry x="40" y="500" width="170" height="20" as="geometry" />
        </mxCell>
        <mxCell id="677b7b8949515195-33" value="Section 9" style="text;html=1;points=[];align=left;verticalAlign=top;spacingTop=-4;fontSize=14;fontFamily=Verdana" parent="1" vertex="1">
          <mxGeometry x="40" y="536" width="170" height="20" as="geometry" />
        </mxCell>
        <mxCell id="677b7b8949515195-34" value="Section 10" style="text;html=1;points=[];align=left;verticalAlign=top;spacingTop=-4;fontSize=14;fontFamily=Verdana" parent="1" vertex="1">
          <mxGeometry x="40" y="571" width="170" height="20" as="geometry" />
        </mxCell>
        <mxCell id="677b7b8949515195-35" value="Section 11" style="text;html=1;points=[];align=left;verticalAlign=top;spacingTop=-4;fontSize=14;fontFamily=Verdana" parent="1" vertex="1">
          <mxGeometry x="40" y="607" width="170" height="20" as="geometry" />
        </mxCell>
        <mxCell id="677b7b8949515195-36" value="Section 12" style="text;html=1;points=[];align=left;verticalAlign=top;spacingTop=-4;fontSize=14;fontFamily=Verdana" parent="1" vertex="1">
          <mxGeometry x="40" y="643" width="170" height="20" as="geometry" />
        </mxCell>
        <mxCell id="677b7b8949515195-37" value="Section 13" style="text;html=1;points=[];align=left;verticalAlign=top;spacingTop=-4;fontSize=14;fontFamily=Verdana" parent="1" vertex="1">
          <mxGeometry x="40" y="679" width="170" height="20" as="geometry" />
        </mxCell>
        <mxCell id="677b7b8949515195-38" value="Section 14" style="text;html=1;points=[];align=left;verticalAlign=top;spacingTop=-4;fontSize=14;fontFamily=Verdana" parent="1" vertex="1">
          <mxGeometry x="40" y="714" width="170" height="20" as="geometry" />
        </mxCell>
        <mxCell id="677b7b8949515195-39" value="Section 5" style="text;html=1;points=[];align=left;verticalAlign=top;spacingTop=-4;fontSize=14;fontFamily=Verdana" parent="1" vertex="1">
          <mxGeometry x="40" y="393" width="170" height="20" as="geometry" />
        </mxCell>
        <mxCell id="677b7b8949515195-40" value="Section 6" style="text;html=1;points=[];align=left;verticalAlign=top;spacingTop=-4;fontSize=14;fontFamily=Verdana" parent="1" vertex="1">
          <mxGeometry x="40" y="429" width="170" height="20" as="geometry" />
        </mxCell>
        <mxCell id="677b7b8949515195-41" value="Section 15" style="text;html=1;points=[];align=left;verticalAlign=top;spacingTop=-4;fontSize=14;fontFamily=Verdana" parent="1" vertex="1">
          <mxGeometry x="40" y="750" width="170" height="20" as="geometry" />
        </mxCell>
        <mxCell id="677b7b8949515195-42" value="External Links" style="text;html=1;points=[];align=left;verticalAlign=top;spacingTop=-4;fontSize=14;fontFamily=Verdana" parent="1" vertex="1">
          <mxGeometry x="860" y="653" width="170" height="20" as="geometry" />
        </mxCell>
        <mxCell id="677b7b8949515195-44" value="Feature 1" style="text;html=1;points=[];align=left;verticalAlign=top;spacingTop=-4;fontSize=14;fontFamily=Verdana" parent="1" vertex="1">
          <mxGeometry x="860" y="250" width="170" height="20" as="geometry" />
        </mxCell>
        <mxCell id="677b7b8949515195-45" value="Feature 2" style="text;html=1;points=[];align=left;verticalAlign=top;spacingTop=-4;fontSize=14;fontFamily=Verdana" parent="1" vertex="1">
          <mxGeometry x="860" y="285" width="170" height="20" as="geometry" />
        </mxCell>
        <mxCell id="677b7b8949515195-46" value="Feature 3" style="text;html=1;points=[];align=left;verticalAlign=top;spacingTop=-4;fontSize=14;fontFamily=Verdana" parent="1" vertex="1">
          <mxGeometry x="860" y="320" width="170" height="20" as="geometry" />
        </mxCell>
        <mxCell id="677b7b8949515195-47" value="Feature 4" style="text;html=1;points=[];align=left;verticalAlign=top;spacingTop=-4;fontSize=14;fontFamily=Verdana" parent="1" vertex="1">
          <mxGeometry x="860" y="355" width="170" height="20" as="geometry" />
        </mxCell>
        <mxCell id="677b7b8949515195-48" value="Feature 5" style="text;html=1;points=[];align=left;verticalAlign=top;spacingTop=-4;fontSize=14;fontFamily=Verdana" parent="1" vertex="1">
          <mxGeometry x="860" y="390" width="170" height="20" as="geometry" />
        </mxCell>
        <mxCell id="677b7b8949515195-49" value="Feature 6" style="text;html=1;points=[];align=left;verticalAlign=top;spacingTop=-4;fontSize=14;fontFamily=Verdana" parent="1" vertex="1">
          <mxGeometry x="860" y="425" width="170" height="20" as="geometry" />
        </mxCell>
      </root>
    </mxGraphModel>
  </diagram>
  <diagram id="oCw7aMCAoyruWE6RQ0JZ" name="ER図">
    <mxGraphModel dx="1268" dy="784" grid="1" gridSize="10" guides="1" tooltips="1" connect="1" arrows="1" fold="1" page="1" pageScale="1" pageWidth="827" pageHeight="1169" math="0" shadow="0">
      <root>
        <mxCell id="WtQcNmKgubv56Q-cde8f-0" />
        <mxCell id="WtQcNmKgubv56Q-cde8f-1" parent="WtQcNmKgubv56Q-cde8f-0" />
      </root>
    </mxGraphModel>
  </diagram>
  <diagram name="Copy of Page-1" id="IIz7koFO8Lc4IzmXWcdK">
    <mxGraphModel dx="987" dy="784" grid="1" gridSize="10" guides="1" tooltips="1" connect="1" arrows="1" fold="1" page="1" pageScale="1" pageWidth="1100" pageHeight="850" background="#ffffff" math="0" shadow="0">
      <root>
        <mxCell id="YR0xCA9stQIPN_hHjUy4-0" />
        <mxCell id="YR0xCA9stQIPN_hHjUy4-1" parent="YR0xCA9stQIPN_hHjUy4-0" />
        <mxCell id="YR0xCA9stQIPN_hHjUy4-2" value="" style="whiteSpace=wrap;html=1;rounded=0;shadow=0;labelBackgroundColor=none;strokeColor=#000000;strokeWidth=1;fillColor=none;fontFamily=Verdana;fontSize=12;fontColor=#000000;align=center;comic=1;" parent="YR0xCA9stQIPN_hHjUy4-1" vertex="1">
          <mxGeometry x="20" y="20" width="1060" height="810" as="geometry" />
        </mxCell>
        <mxCell id="YR0xCA9stQIPN_hHjUy4-3" value="LOGO" style="whiteSpace=wrap;html=1;rounded=0;shadow=0;labelBackgroundColor=none;strokeWidth=1;fontFamily=Verdana;fontSize=28;align=center;comic=1;" parent="YR0xCA9stQIPN_hHjUy4-1" vertex="1">
          <mxGeometry x="40" y="60" width="190" height="50" as="geometry" />
        </mxCell>
        <mxCell id="YR0xCA9stQIPN_hHjUy4-4" value="Search" style="strokeWidth=1;shadow=0;dashed=0;align=center;html=1;shape=mxgraph.mockup.forms.searchBox;strokeColor=#999999;mainText=;strokeColor2=#008cff;fontColor=#666666;fontSize=17;align=left;spacingLeft=3;rounded=0;labelBackgroundColor=none;comic=1;" parent="YR0xCA9stQIPN_hHjUy4-1" vertex="1">
          <mxGeometry x="840" y="95" width="220" height="30" as="geometry" />
        </mxCell>
        <mxCell id="YR0xCA9stQIPN_hHjUy4-5" value="Topic 1" style="text;html=1;points=[];align=left;verticalAlign=top;spacingTop=-4;fontSize=14;fontFamily=Verdana" parent="YR0xCA9stQIPN_hHjUy4-1" vertex="1">
          <mxGeometry x="780" y="40" width="60" height="20" as="geometry" />
        </mxCell>
        <mxCell id="YR0xCA9stQIPN_hHjUy4-6" value="Topic 2" style="text;html=1;points=[];align=left;verticalAlign=top;spacingTop=-4;fontSize=14;fontFamily=Verdana" parent="YR0xCA9stQIPN_hHjUy4-1" vertex="1">
          <mxGeometry x="860" y="40" width="60" height="20" as="geometry" />
        </mxCell>
        <mxCell id="YR0xCA9stQIPN_hHjUy4-7" value="Topic 3" style="text;html=1;points=[];align=left;verticalAlign=top;spacingTop=-4;fontSize=14;fontFamily=Verdana" parent="YR0xCA9stQIPN_hHjUy4-1" vertex="1">
          <mxGeometry x="930" y="40" width="60" height="20" as="geometry" />
        </mxCell>
        <mxCell id="YR0xCA9stQIPN_hHjUy4-8" value="Topic 4" style="text;html=1;points=[];align=left;verticalAlign=top;spacingTop=-4;fontSize=14;fontFamily=Verdana" parent="YR0xCA9stQIPN_hHjUy4-1" vertex="1">
          <mxGeometry x="1000" y="40" width="60" height="20" as="geometry" />
        </mxCell>
        <mxCell id="YR0xCA9stQIPN_hHjUy4-10" value="" style="line;strokeWidth=1;html=1;rounded=0;shadow=0;labelBackgroundColor=none;fillColor=none;fontFamily=Verdana;fontSize=14;fontColor=#000000;align=center;comic=1;" parent="YR0xCA9stQIPN_hHjUy4-1" vertex="1">
          <mxGeometry x="20" y="140" width="1060" height="10" as="geometry" />
        </mxCell>
        <mxCell id="YR0xCA9stQIPN_hHjUy4-11" value="" style="whiteSpace=wrap;html=1;rounded=0;shadow=0;labelBackgroundColor=none;strokeWidth=1;fillColor=none;fontFamily=Verdana;fontSize=12;align=center;comic=1;" parent="YR0xCA9stQIPN_hHjUy4-1" vertex="1">
          <mxGeometry x="30" y="160" width="1040" height="50" as="geometry" />
        </mxCell>
        <mxCell id="YR0xCA9stQIPN_hHjUy4-12" value="Section 1" style="text;html=1;points=[];align=left;verticalAlign=top;spacingTop=-4;fontSize=14;fontFamily=Verdana" parent="YR0xCA9stQIPN_hHjUy4-1" vertex="1">
          <mxGeometry x="330" y="175" width="60" height="20" as="geometry" />
        </mxCell>
        <mxCell id="YR0xCA9stQIPN_hHjUy4-13" value="Section 2" style="text;html=1;points=[];align=left;verticalAlign=top;spacingTop=-4;fontSize=14;fontFamily=Verdana" parent="YR0xCA9stQIPN_hHjUy4-1" vertex="1">
          <mxGeometry x="477" y="175" width="60" height="20" as="geometry" />
        </mxCell>
        <mxCell id="YR0xCA9stQIPN_hHjUy4-14" value="Section 3" style="text;html=1;points=[];align=left;verticalAlign=top;spacingTop=-4;fontSize=14;fontFamily=Verdana" parent="YR0xCA9stQIPN_hHjUy4-1" vertex="1">
          <mxGeometry x="623" y="175" width="60" height="20" as="geometry" />
        </mxCell>
        <mxCell id="YR0xCA9stQIPN_hHjUy4-15" value="Section 4" style="text;html=1;points=[];align=left;verticalAlign=top;spacingTop=-4;fontSize=14;fontFamily=Verdana" parent="YR0xCA9stQIPN_hHjUy4-1" vertex="1">
          <mxGeometry x="770" y="175" width="60" height="20" as="geometry" />
        </mxCell>
        <mxCell id="YR0xCA9stQIPN_hHjUy4-17" value="" style="verticalLabelPosition=bottom;shadow=0;dashed=0;align=center;html=1;verticalAlign=top;strokeWidth=1;shape=mxgraph.mockup.graphics.simpleIcon;strokeColor=#999999;rounded=0;labelBackgroundColor=none;fontFamily=Verdana;fontSize=14;fontColor=#000000;comic=1;" parent="YR0xCA9stQIPN_hHjUy4-1" vertex="1">
          <mxGeometry x="30" y="250" width="210" height="110" as="geometry" />
        </mxCell>
        <mxCell id="W5pu1PysUgFdEQyHCCkK-0" value="" style="verticalLabelPosition=bottom;shadow=0;dashed=0;align=center;html=1;verticalAlign=top;strokeWidth=1;shape=mxgraph.mockup.graphics.simpleIcon;strokeColor=#999999;rounded=0;labelBackgroundColor=none;fontFamily=Verdana;fontSize=14;fontColor=#000000;comic=1;" parent="YR0xCA9stQIPN_hHjUy4-1" vertex="1">
          <mxGeometry x="50" y="530" width="210" height="110" as="geometry" />
        </mxCell>
        <mxCell id="W5pu1PysUgFdEQyHCCkK-1" value="" style="verticalLabelPosition=bottom;shadow=0;dashed=0;align=center;html=1;verticalAlign=top;strokeWidth=1;shape=mxgraph.mockup.graphics.simpleIcon;strokeColor=#999999;rounded=0;labelBackgroundColor=none;fontFamily=Verdana;fontSize=14;fontColor=#000000;comic=1;" parent="YR0xCA9stQIPN_hHjUy4-1" vertex="1">
          <mxGeometry x="40" y="380" width="210" height="110" as="geometry" />
        </mxCell>
        <mxCell id="W5pu1PysUgFdEQyHCCkK-2" value="カテゴリ" style="rounded=0;whiteSpace=wrap;html=1;" parent="YR0xCA9stQIPN_hHjUy4-1" vertex="1">
          <mxGeometry x="170" y="530" width="90" height="40" as="geometry" />
        </mxCell>
        <mxCell id="W5pu1PysUgFdEQyHCCkK-3" value="タイトル" style="rounded=0;whiteSpace=wrap;html=1;" parent="YR0xCA9stQIPN_hHjUy4-1" vertex="1">
          <mxGeometry x="50" y="530" width="120" height="40" as="geometry" />
        </mxCell>
      </root>
    </mxGraphModel>
  </diagram>
  <diagram name="main　詳細" id="PEy0PXQPY_C8sjJsXyo-">
    <mxGraphModel dx="1268" dy="784" grid="1" gridSize="10" guides="1" tooltips="1" connect="1" arrows="1" fold="1" page="1" pageScale="1" pageWidth="1100" pageHeight="850" background="#ffffff" math="0" shadow="0">
      <root>
        <mxCell id="znaoPgQTTz4BiaGgTsE_-0" />
        <mxCell id="znaoPgQTTz4BiaGgTsE_-1" parent="znaoPgQTTz4BiaGgTsE_-0" />
        <mxCell id="znaoPgQTTz4BiaGgTsE_-2" value="" style="whiteSpace=wrap;html=1;rounded=0;shadow=0;labelBackgroundColor=none;strokeColor=#000000;strokeWidth=1;fillColor=none;fontFamily=Verdana;fontSize=12;fontColor=#000000;align=center;comic=1;" vertex="1" parent="znaoPgQTTz4BiaGgTsE_-1">
          <mxGeometry x="30" y="20" width="1060" height="960" as="geometry" />
        </mxCell>
        <mxCell id="znaoPgQTTz4BiaGgTsE_-3" value="LOGO" style="whiteSpace=wrap;html=1;rounded=0;shadow=0;labelBackgroundColor=none;strokeWidth=1;fontFamily=Verdana;fontSize=28;align=center;comic=1;" vertex="1" parent="znaoPgQTTz4BiaGgTsE_-1">
          <mxGeometry x="40" y="60" width="190" height="50" as="geometry" />
        </mxCell>
        <mxCell id="znaoPgQTTz4BiaGgTsE_-4" value="Search" style="strokeWidth=1;shadow=0;dashed=0;align=center;html=1;shape=mxgraph.mockup.forms.searchBox;strokeColor=#999999;mainText=;strokeColor2=#008cff;fontColor=#666666;fontSize=17;align=left;spacingLeft=3;rounded=0;labelBackgroundColor=none;comic=1;" vertex="1" parent="znaoPgQTTz4BiaGgTsE_-1">
          <mxGeometry x="840" y="95" width="220" height="30" as="geometry" />
        </mxCell>
        <mxCell id="znaoPgQTTz4BiaGgTsE_-5" value="Topic 1" style="text;html=1;points=[];align=left;verticalAlign=top;spacingTop=-4;fontSize=14;fontFamily=Verdana" vertex="1" parent="znaoPgQTTz4BiaGgTsE_-1">
          <mxGeometry x="780" y="40" width="60" height="20" as="geometry" />
        </mxCell>
        <mxCell id="znaoPgQTTz4BiaGgTsE_-6" value="Topic 2" style="text;html=1;points=[];align=left;verticalAlign=top;spacingTop=-4;fontSize=14;fontFamily=Verdana" vertex="1" parent="znaoPgQTTz4BiaGgTsE_-1">
          <mxGeometry x="860" y="40" width="60" height="20" as="geometry" />
        </mxCell>
        <mxCell id="znaoPgQTTz4BiaGgTsE_-7" value="Topic 3" style="text;html=1;points=[];align=left;verticalAlign=top;spacingTop=-4;fontSize=14;fontFamily=Verdana" vertex="1" parent="znaoPgQTTz4BiaGgTsE_-1">
          <mxGeometry x="930" y="40" width="60" height="20" as="geometry" />
        </mxCell>
        <mxCell id="znaoPgQTTz4BiaGgTsE_-8" value="Topic 4" style="text;html=1;points=[];align=left;verticalAlign=top;spacingTop=-4;fontSize=14;fontFamily=Verdana" vertex="1" parent="znaoPgQTTz4BiaGgTsE_-1">
          <mxGeometry x="1000" y="40" width="60" height="20" as="geometry" />
        </mxCell>
        <mxCell id="znaoPgQTTz4BiaGgTsE_-9" value="" style="line;strokeWidth=1;html=1;rounded=0;shadow=0;labelBackgroundColor=none;fillColor=none;fontFamily=Verdana;fontSize=14;fontColor=#000000;align=center;comic=1;" vertex="1" parent="znaoPgQTTz4BiaGgTsE_-1">
          <mxGeometry x="20" y="140" width="1060" height="10" as="geometry" />
        </mxCell>
        <mxCell id="znaoPgQTTz4BiaGgTsE_-10" value="" style="whiteSpace=wrap;html=1;rounded=0;shadow=0;labelBackgroundColor=none;strokeWidth=1;fillColor=none;fontFamily=Verdana;fontSize=12;align=center;comic=1;" vertex="1" parent="znaoPgQTTz4BiaGgTsE_-1">
          <mxGeometry x="30" y="160" width="1040" height="50" as="geometry" />
        </mxCell>
        <mxCell id="znaoPgQTTz4BiaGgTsE_-11" value="Section 1" style="text;html=1;points=[];align=left;verticalAlign=top;spacingTop=-4;fontSize=14;fontFamily=Verdana" vertex="1" parent="znaoPgQTTz4BiaGgTsE_-1">
          <mxGeometry x="330" y="175" width="60" height="20" as="geometry" />
        </mxCell>
        <mxCell id="znaoPgQTTz4BiaGgTsE_-12" value="Section 2" style="text;html=1;points=[];align=left;verticalAlign=top;spacingTop=-4;fontSize=14;fontFamily=Verdana" vertex="1" parent="znaoPgQTTz4BiaGgTsE_-1">
          <mxGeometry x="477" y="175" width="60" height="20" as="geometry" />
        </mxCell>
        <mxCell id="znaoPgQTTz4BiaGgTsE_-13" value="Section 3" style="text;html=1;points=[];align=left;verticalAlign=top;spacingTop=-4;fontSize=14;fontFamily=Verdana" vertex="1" parent="znaoPgQTTz4BiaGgTsE_-1">
          <mxGeometry x="623" y="175" width="60" height="20" as="geometry" />
        </mxCell>
        <mxCell id="znaoPgQTTz4BiaGgTsE_-14" value="Section 4" style="text;html=1;points=[];align=left;verticalAlign=top;spacingTop=-4;fontSize=14;fontFamily=Verdana" vertex="1" parent="znaoPgQTTz4BiaGgTsE_-1">
          <mxGeometry x="770" y="175" width="60" height="20" as="geometry" />
        </mxCell>
        <mxCell id="znaoPgQTTz4BiaGgTsE_-15" value="" style="verticalLabelPosition=bottom;shadow=0;dashed=0;align=center;html=1;verticalAlign=top;strokeWidth=1;shape=mxgraph.mockup.graphics.simpleIcon;strokeColor=#999999;rounded=0;labelBackgroundColor=none;fontFamily=Verdana;fontSize=14;fontColor=#000000;comic=1;" vertex="1" parent="znaoPgQTTz4BiaGgTsE_-1">
          <mxGeometry x="50" y="260" width="210" height="110" as="geometry" />
        </mxCell>
        <mxCell id="znaoPgQTTz4BiaGgTsE_-16" value="" style="verticalLabelPosition=bottom;shadow=0;dashed=0;align=center;html=1;verticalAlign=top;strokeWidth=1;shape=mxgraph.mockup.graphics.simpleIcon;strokeColor=#999999;rounded=0;labelBackgroundColor=none;fontFamily=Verdana;fontSize=14;fontColor=#000000;comic=1;" vertex="1" parent="znaoPgQTTz4BiaGgTsE_-1">
          <mxGeometry x="60" y="460" width="210" height="110" as="geometry" />
        </mxCell>
        <mxCell id="znaoPgQTTz4BiaGgTsE_-18" value="カテゴリ" style="rounded=0;whiteSpace=wrap;html=1;" vertex="1" parent="znaoPgQTTz4BiaGgTsE_-1">
          <mxGeometry x="170" y="460" width="90" height="40" as="geometry" />
        </mxCell>
        <mxCell id="znaoPgQTTz4BiaGgTsE_-19" value="タイトル" style="rounded=0;whiteSpace=wrap;html=1;" vertex="1" parent="znaoPgQTTz4BiaGgTsE_-1">
          <mxGeometry x="50" y="460" width="120" height="40" as="geometry" />
        </mxCell>
        <mxCell id="znaoPgQTTz4BiaGgTsE_-20" value="" style="verticalLabelPosition=bottom;shadow=0;dashed=0;align=center;html=1;verticalAlign=top;strokeWidth=1;shape=mxgraph.mockup.graphics.simpleIcon;strokeColor=#999999;rounded=0;labelBackgroundColor=none;fontFamily=Verdana;fontSize=14;fontColor=#000000;comic=1;" vertex="1" parent="znaoPgQTTz4BiaGgTsE_-1">
          <mxGeometry x="290" y="480" width="210" height="110" as="geometry" />
        </mxCell>
        <mxCell id="znaoPgQTTz4BiaGgTsE_-21" value="" style="verticalLabelPosition=bottom;shadow=0;dashed=0;align=center;html=1;verticalAlign=top;strokeWidth=1;shape=mxgraph.mockup.graphics.simpleIcon;strokeColor=#999999;rounded=0;labelBackgroundColor=none;fontFamily=Verdana;fontSize=14;fontColor=#000000;comic=1;" vertex="1" parent="znaoPgQTTz4BiaGgTsE_-1">
          <mxGeometry x="280" y="640" width="210" height="110" as="geometry" />
        </mxCell>
        <mxCell id="znaoPgQTTz4BiaGgTsE_-22" value="" style="verticalLabelPosition=bottom;shadow=0;dashed=0;align=center;html=1;verticalAlign=top;strokeWidth=1;shape=mxgraph.mockup.graphics.simpleIcon;strokeColor=#999999;rounded=0;labelBackgroundColor=none;fontFamily=Verdana;fontSize=14;fontColor=#000000;comic=1;" vertex="1" parent="znaoPgQTTz4BiaGgTsE_-1">
          <mxGeometry x="537" y="640" width="210" height="110" as="geometry" />
        </mxCell>
        <mxCell id="znaoPgQTTz4BiaGgTsE_-23" value="" style="verticalLabelPosition=bottom;shadow=0;dashed=0;align=center;html=1;verticalAlign=top;strokeWidth=1;shape=mxgraph.mockup.graphics.simpleIcon;strokeColor=#999999;rounded=0;labelBackgroundColor=none;fontFamily=Verdana;fontSize=14;fontColor=#000000;comic=1;" vertex="1" parent="znaoPgQTTz4BiaGgTsE_-1">
          <mxGeometry x="790" y="640" width="210" height="110" as="geometry" />
        </mxCell>
        <mxCell id="znaoPgQTTz4BiaGgTsE_-24" value="" style="endArrow=none;dashed=1;html=1;exitX=0.495;exitY=0.991;exitDx=0;exitDy=0;exitPerimeter=0;" edge="1" parent="znaoPgQTTz4BiaGgTsE_-1" source="znaoPgQTTz4BiaGgTsE_-20" target="znaoPgQTTz4BiaGgTsE_-21">
          <mxGeometry width="50" height="50" relative="1" as="geometry">
            <mxPoint x="590" y="430" as="sourcePoint" />
            <mxPoint x="640" y="380" as="targetPoint" />
          </mxGeometry>
        </mxCell>
        <mxCell id="znaoPgQTTz4BiaGgTsE_-25" value="" style="endArrow=none;dashed=1;html=1;exitX=0.471;exitY=0.991;exitDx=0;exitDy=0;exitPerimeter=0;" edge="1" parent="znaoPgQTTz4BiaGgTsE_-1" source="znaoPgQTTz4BiaGgTsE_-20" target="znaoPgQTTz4BiaGgTsE_-22">
          <mxGeometry width="50" height="50" relative="1" as="geometry">
            <mxPoint x="453.95000000000005" y="389.01" as="sourcePoint" />
            <mxPoint x="445.85790186477766" y="430" as="targetPoint" />
          </mxGeometry>
        </mxCell>
        <mxCell id="znaoPgQTTz4BiaGgTsE_-26" value="" style="endArrow=none;dashed=1;html=1;entryX=0.548;entryY=0.009;entryDx=0;entryDy=0;entryPerimeter=0;" edge="1" parent="znaoPgQTTz4BiaGgTsE_-1" target="znaoPgQTTz4BiaGgTsE_-23">
          <mxGeometry width="50" height="50" relative="1" as="geometry">
            <mxPoint x="390" y="590" as="sourcePoint" />
            <mxPoint x="455.85790186477766" y="440" as="targetPoint" />
          </mxGeometry>
        </mxCell>
        <mxCell id="znaoPgQTTz4BiaGgTsE_-27" value="しっかりメモできる&lt;br&gt;内容、つながりとの関係、ジャンル" style="rounded=0;whiteSpace=wrap;html=1;" vertex="1" parent="znaoPgQTTz4BiaGgTsE_-1">
          <mxGeometry x="860" y="1020" width="347" height="60" as="geometry" />
        </mxCell>
        <mxCell id="znaoPgQTTz4BiaGgTsE_-28" value="" style="verticalLabelPosition=bottom;shadow=0;dashed=0;align=center;html=1;verticalAlign=top;strokeWidth=1;shape=mxgraph.mockup.graphics.simpleIcon;strokeColor=#999999;rounded=0;labelBackgroundColor=none;fontFamily=Verdana;fontSize=14;fontColor=#000000;comic=1;" vertex="1" parent="znaoPgQTTz4BiaGgTsE_-1">
          <mxGeometry x="280" y="850" width="210" height="110" as="geometry" />
        </mxCell>
        <mxCell id="znaoPgQTTz4BiaGgTsE_-29" value="" style="endArrow=none;dashed=1;html=1;exitX=0.543;exitY=0.991;exitDx=0;exitDy=0;exitPerimeter=0;" edge="1" parent="znaoPgQTTz4BiaGgTsE_-1" source="znaoPgQTTz4BiaGgTsE_-21" target="znaoPgQTTz4BiaGgTsE_-28">
          <mxGeometry width="50" height="50" relative="1" as="geometry">
            <mxPoint x="453.95000000000005" y="389.01" as="sourcePoint" />
            <mxPoint x="445.85790186477766" y="430" as="targetPoint" />
          </mxGeometry>
        </mxCell>
        <mxCell id="znaoPgQTTz4BiaGgTsE_-30" value="カテゴリ" style="rounded=0;whiteSpace=wrap;html=1;" vertex="1" parent="znaoPgQTTz4BiaGgTsE_-1">
          <mxGeometry x="410" y="480" width="90" height="40" as="geometry" />
        </mxCell>
        <mxCell id="znaoPgQTTz4BiaGgTsE_-31" value="タイトル" style="rounded=0;whiteSpace=wrap;html=1;" vertex="1" parent="znaoPgQTTz4BiaGgTsE_-1">
          <mxGeometry x="290" y="480" width="120" height="40" as="geometry" />
        </mxCell>
        <mxCell id="znaoPgQTTz4BiaGgTsE_-32" value="つながりメモ（関係性）" style="rounded=0;whiteSpace=wrap;html=1;" vertex="1" parent="znaoPgQTTz4BiaGgTsE_-1">
          <mxGeometry x="306.5" y="790" width="157" height="40" as="geometry" />
        </mxCell>
        <mxCell id="znaoPgQTTz4BiaGgTsE_-33" value="" style="verticalLabelPosition=bottom;shadow=0;dashed=0;align=center;html=1;verticalAlign=top;strokeWidth=1;shape=mxgraph.mockup.graphics.simpleIcon;strokeColor=#999999;rounded=0;labelBackgroundColor=none;fontFamily=Verdana;fontSize=14;fontColor=#000000;comic=1;" vertex="1" parent="znaoPgQTTz4BiaGgTsE_-1">
          <mxGeometry x="560" y="850" width="210" height="110" as="geometry" />
        </mxCell>
        <mxCell id="znaoPgQTTz4BiaGgTsE_-34" value="" style="endArrow=none;dashed=1;html=1;entryX=0.538;entryY=0;entryDx=0;entryDy=0;entryPerimeter=0;exitX=0.552;exitY=1.009;exitDx=0;exitDy=0;exitPerimeter=0;" edge="1" parent="znaoPgQTTz4BiaGgTsE_-1" source="znaoPgQTTz4BiaGgTsE_-21" target="znaoPgQTTz4BiaGgTsE_-33">
          <mxGeometry width="50" height="50" relative="1" as="geometry">
            <mxPoint x="440" y="530" as="sourcePoint" />
            <mxPoint x="570" y="440.42062895307185" as="targetPoint" />
          </mxGeometry>
        </mxCell>
        <mxCell id="znaoPgQTTz4BiaGgTsE_-35" value="" style="endArrow=none;dashed=1;html=1;entryX=0.529;entryY=0.018;entryDx=0;entryDy=0;entryPerimeter=0;" edge="1" parent="znaoPgQTTz4BiaGgTsE_-1" source="znaoPgQTTz4BiaGgTsE_-22" target="znaoPgQTTz4BiaGgTsE_-33">
          <mxGeometry width="50" height="50" relative="1" as="geometry">
            <mxPoint x="450" y="540" as="sourcePoint" />
            <mxPoint x="692.98" y="640" as="targetPoint" />
          </mxGeometry>
        </mxCell>
        <mxCell id="ZIOM2gNxAw1GFzSWznIu-1" value="user情報" style="rounded=0;whiteSpace=wrap;html=1;" vertex="1" parent="znaoPgQTTz4BiaGgTsE_-1">
          <mxGeometry x="50" y="260" width="120" height="40" as="geometry" />
        </mxCell>
        <mxCell id="ZIOM2gNxAw1GFzSWznIu-2" value="＋メモ編集" style="ellipse;whiteSpace=wrap;html=1;aspect=fixed;" vertex="1" parent="znaoPgQTTz4BiaGgTsE_-1">
          <mxGeometry x="780" y="435" width="130" height="130" as="geometry" />
        </mxCell>
        <mxCell id="ZIOM2gNxAw1GFzSWznIu-3" value="新規メモ" style="rounded=0;whiteSpace=wrap;html=1;" vertex="1" parent="znaoPgQTTz4BiaGgTsE_-1">
          <mxGeometry x="50" y="420" width="120" height="40" as="geometry" />
        </mxCell>
        <mxCell id="ZIOM2gNxAw1GFzSWznIu-4" value="重要メモ" style="rounded=0;whiteSpace=wrap;html=1;" vertex="1" parent="znaoPgQTTz4BiaGgTsE_-1">
          <mxGeometry x="50" y="300" width="120" height="40" as="geometry" />
        </mxCell>
        <mxCell id="R6Ua3RDb--RF8QXQcNEG-2" value="重要メモ②" style="rounded=0;whiteSpace=wrap;html=1;" vertex="1" parent="znaoPgQTTz4BiaGgTsE_-1">
          <mxGeometry x="50" y="340" width="120" height="40" as="geometry" />
        </mxCell>
      </root>
    </mxGraphModel>
  </diagram>
  <diagram name="main 一覧" id="ZA_vHk-vfLOFiyYvEt6z">
    <mxGraphModel dx="987" dy="784" grid="1" gridSize="10" guides="1" tooltips="1" connect="1" arrows="1" fold="1" page="1" pageScale="1" pageWidth="1100" pageHeight="850" background="#ffffff" math="0" shadow="0">
      <root>
        <mxCell id="ARWrC8dbmePqLKVEg40H-0" />
        <mxCell id="ARWrC8dbmePqLKVEg40H-1" parent="ARWrC8dbmePqLKVEg40H-0" />
        <mxCell id="ARWrC8dbmePqLKVEg40H-2" value="" style="whiteSpace=wrap;html=1;rounded=0;shadow=0;labelBackgroundColor=none;strokeColor=#000000;strokeWidth=1;fillColor=none;fontFamily=Verdana;fontSize=12;fontColor=#000000;align=center;comic=1;" vertex="1" parent="ARWrC8dbmePqLKVEg40H-1">
          <mxGeometry x="30" y="20" width="1060" height="810" as="geometry" />
        </mxCell>
        <mxCell id="ARWrC8dbmePqLKVEg40H-3" value="LOGO" style="whiteSpace=wrap;html=1;rounded=0;shadow=0;labelBackgroundColor=none;strokeWidth=1;fontFamily=Verdana;fontSize=28;align=center;comic=1;" vertex="1" parent="ARWrC8dbmePqLKVEg40H-1">
          <mxGeometry x="40" y="60" width="190" height="50" as="geometry" />
        </mxCell>
        <mxCell id="ARWrC8dbmePqLKVEg40H-4" value="Search" style="strokeWidth=1;shadow=0;dashed=0;align=center;html=1;shape=mxgraph.mockup.forms.searchBox;strokeColor=#999999;mainText=;strokeColor2=#008cff;fontColor=#666666;fontSize=17;align=left;spacingLeft=3;rounded=0;labelBackgroundColor=none;comic=1;" vertex="1" parent="ARWrC8dbmePqLKVEg40H-1">
          <mxGeometry x="840" y="95" width="220" height="30" as="geometry" />
        </mxCell>
        <mxCell id="ARWrC8dbmePqLKVEg40H-5" value="Topic 1" style="text;html=1;points=[];align=left;verticalAlign=top;spacingTop=-4;fontSize=14;fontFamily=Verdana" vertex="1" parent="ARWrC8dbmePqLKVEg40H-1">
          <mxGeometry x="780" y="40" width="60" height="20" as="geometry" />
        </mxCell>
        <mxCell id="ARWrC8dbmePqLKVEg40H-6" value="Topic 2" style="text;html=1;points=[];align=left;verticalAlign=top;spacingTop=-4;fontSize=14;fontFamily=Verdana" vertex="1" parent="ARWrC8dbmePqLKVEg40H-1">
          <mxGeometry x="860" y="40" width="60" height="20" as="geometry" />
        </mxCell>
        <mxCell id="ARWrC8dbmePqLKVEg40H-7" value="Topic 3" style="text;html=1;points=[];align=left;verticalAlign=top;spacingTop=-4;fontSize=14;fontFamily=Verdana" vertex="1" parent="ARWrC8dbmePqLKVEg40H-1">
          <mxGeometry x="930" y="40" width="60" height="20" as="geometry" />
        </mxCell>
        <mxCell id="ARWrC8dbmePqLKVEg40H-8" value="Topic 4" style="text;html=1;points=[];align=left;verticalAlign=top;spacingTop=-4;fontSize=14;fontFamily=Verdana" vertex="1" parent="ARWrC8dbmePqLKVEg40H-1">
          <mxGeometry x="1000" y="40" width="60" height="20" as="geometry" />
        </mxCell>
        <mxCell id="ARWrC8dbmePqLKVEg40H-9" value="" style="line;strokeWidth=1;html=1;rounded=0;shadow=0;labelBackgroundColor=none;fillColor=none;fontFamily=Verdana;fontSize=14;fontColor=#000000;align=center;comic=1;" vertex="1" parent="ARWrC8dbmePqLKVEg40H-1">
          <mxGeometry x="20" y="140" width="1060" height="10" as="geometry" />
        </mxCell>
        <mxCell id="ARWrC8dbmePqLKVEg40H-10" value="" style="whiteSpace=wrap;html=1;rounded=0;shadow=0;labelBackgroundColor=none;strokeWidth=1;fillColor=none;fontFamily=Verdana;fontSize=12;align=center;comic=1;" vertex="1" parent="ARWrC8dbmePqLKVEg40H-1">
          <mxGeometry x="30" y="160" width="1040" height="50" as="geometry" />
        </mxCell>
        <mxCell id="ARWrC8dbmePqLKVEg40H-11" value="Section 1" style="text;html=1;points=[];align=left;verticalAlign=top;spacingTop=-4;fontSize=14;fontFamily=Verdana" vertex="1" parent="ARWrC8dbmePqLKVEg40H-1">
          <mxGeometry x="330" y="175" width="60" height="20" as="geometry" />
        </mxCell>
        <mxCell id="ARWrC8dbmePqLKVEg40H-12" value="Section 2" style="text;html=1;points=[];align=left;verticalAlign=top;spacingTop=-4;fontSize=14;fontFamily=Verdana" vertex="1" parent="ARWrC8dbmePqLKVEg40H-1">
          <mxGeometry x="477" y="175" width="60" height="20" as="geometry" />
        </mxCell>
        <mxCell id="ARWrC8dbmePqLKVEg40H-13" value="Section 3" style="text;html=1;points=[];align=left;verticalAlign=top;spacingTop=-4;fontSize=14;fontFamily=Verdana" vertex="1" parent="ARWrC8dbmePqLKVEg40H-1">
          <mxGeometry x="623" y="175" width="60" height="20" as="geometry" />
        </mxCell>
        <mxCell id="ARWrC8dbmePqLKVEg40H-14" value="Section 4" style="text;html=1;points=[];align=left;verticalAlign=top;spacingTop=-4;fontSize=14;fontFamily=Verdana" vertex="1" parent="ARWrC8dbmePqLKVEg40H-1">
          <mxGeometry x="770" y="175" width="60" height="20" as="geometry" />
        </mxCell>
        <mxCell id="ARWrC8dbmePqLKVEg40H-15" value="" style="verticalLabelPosition=bottom;shadow=0;dashed=0;align=center;html=1;verticalAlign=top;strokeWidth=1;shape=mxgraph.mockup.graphics.simpleIcon;strokeColor=#999999;rounded=0;labelBackgroundColor=none;fontFamily=Verdana;fontSize=14;fontColor=#000000;comic=1;" vertex="1" parent="ARWrC8dbmePqLKVEg40H-1">
          <mxGeometry x="30" y="250" width="210" height="110" as="geometry" />
        </mxCell>
        <mxCell id="ARWrC8dbmePqLKVEg40H-16" value="" style="verticalLabelPosition=bottom;shadow=0;dashed=0;align=center;html=1;verticalAlign=top;strokeWidth=1;shape=mxgraph.mockup.graphics.simpleIcon;strokeColor=#999999;rounded=0;labelBackgroundColor=none;fontFamily=Verdana;fontSize=14;fontColor=#000000;comic=1;" vertex="1" parent="ARWrC8dbmePqLKVEg40H-1">
          <mxGeometry x="50" y="530" width="210" height="110" as="geometry" />
        </mxCell>
        <mxCell id="ARWrC8dbmePqLKVEg40H-17" value="" style="verticalLabelPosition=bottom;shadow=0;dashed=0;align=center;html=1;verticalAlign=top;strokeWidth=1;shape=mxgraph.mockup.graphics.simpleIcon;strokeColor=#999999;rounded=0;labelBackgroundColor=none;fontFamily=Verdana;fontSize=14;fontColor=#000000;comic=1;" vertex="1" parent="ARWrC8dbmePqLKVEg40H-1">
          <mxGeometry x="30" y="380" width="210" height="110" as="geometry" />
        </mxCell>
        <mxCell id="ARWrC8dbmePqLKVEg40H-18" value="カテゴリ" style="rounded=0;whiteSpace=wrap;html=1;" vertex="1" parent="ARWrC8dbmePqLKVEg40H-1">
          <mxGeometry x="170" y="530" width="90" height="40" as="geometry" />
        </mxCell>
        <mxCell id="ARWrC8dbmePqLKVEg40H-19" value="タイトル" style="rounded=0;whiteSpace=wrap;html=1;" vertex="1" parent="ARWrC8dbmePqLKVEg40H-1">
          <mxGeometry x="50" y="530" width="120" height="40" as="geometry" />
        </mxCell>
        <mxCell id="ARWrC8dbmePqLKVEg40H-20" value="" style="verticalLabelPosition=bottom;shadow=0;dashed=0;align=center;html=1;verticalAlign=top;strokeWidth=1;shape=mxgraph.mockup.graphics.simpleIcon;strokeColor=#999999;rounded=0;labelBackgroundColor=none;fontFamily=Verdana;fontSize=14;fontColor=#000000;comic=1;" vertex="1" parent="ARWrC8dbmePqLKVEg40H-1">
          <mxGeometry x="340" y="270" width="210" height="110" as="geometry" />
        </mxCell>
        <mxCell id="ARWrC8dbmePqLKVEg40H-21" value="" style="verticalLabelPosition=bottom;shadow=0;dashed=0;align=center;html=1;verticalAlign=top;strokeWidth=1;shape=mxgraph.mockup.graphics.simpleIcon;strokeColor=#999999;rounded=0;labelBackgroundColor=none;fontFamily=Verdana;fontSize=14;fontColor=#000000;comic=1;" vertex="1" parent="ARWrC8dbmePqLKVEg40H-1">
          <mxGeometry x="320" y="420" width="210" height="110" as="geometry" />
        </mxCell>
        <mxCell id="ARWrC8dbmePqLKVEg40H-22" value="" style="verticalLabelPosition=bottom;shadow=0;dashed=0;align=center;html=1;verticalAlign=top;strokeWidth=1;shape=mxgraph.mockup.graphics.simpleIcon;strokeColor=#999999;rounded=0;labelBackgroundColor=none;fontFamily=Verdana;fontSize=14;fontColor=#000000;comic=1;" vertex="1" parent="ARWrC8dbmePqLKVEg40H-1">
          <mxGeometry x="560" y="420" width="210" height="110" as="geometry" />
        </mxCell>
        <mxCell id="ARWrC8dbmePqLKVEg40H-23" value="" style="verticalLabelPosition=bottom;shadow=0;dashed=0;align=center;html=1;verticalAlign=top;strokeWidth=1;shape=mxgraph.mockup.graphics.simpleIcon;strokeColor=#999999;rounded=0;labelBackgroundColor=none;fontFamily=Verdana;fontSize=14;fontColor=#000000;comic=1;" vertex="1" parent="ARWrC8dbmePqLKVEg40H-1">
          <mxGeometry x="800" y="420" width="210" height="110" as="geometry" />
        </mxCell>
        <mxCell id="ARWrC8dbmePqLKVEg40H-24" value="" style="endArrow=none;dashed=1;html=1;exitX=0.495;exitY=0.991;exitDx=0;exitDy=0;exitPerimeter=0;" edge="1" parent="ARWrC8dbmePqLKVEg40H-1" source="ARWrC8dbmePqLKVEg40H-20" target="ARWrC8dbmePqLKVEg40H-21">
          <mxGeometry width="50" height="50" relative="1" as="geometry">
            <mxPoint x="590" y="430" as="sourcePoint" />
            <mxPoint x="640" y="380" as="targetPoint" />
          </mxGeometry>
        </mxCell>
        <mxCell id="ARWrC8dbmePqLKVEg40H-25" value="" style="endArrow=none;dashed=1;html=1;exitX=0.471;exitY=0.991;exitDx=0;exitDy=0;exitPerimeter=0;" edge="1" parent="ARWrC8dbmePqLKVEg40H-1" source="ARWrC8dbmePqLKVEg40H-20" target="ARWrC8dbmePqLKVEg40H-22">
          <mxGeometry width="50" height="50" relative="1" as="geometry">
            <mxPoint x="453.95000000000005" y="389.01" as="sourcePoint" />
            <mxPoint x="445.85790186477766" y="430" as="targetPoint" />
          </mxGeometry>
        </mxCell>
        <mxCell id="ARWrC8dbmePqLKVEg40H-26" value="" style="endArrow=none;dashed=1;html=1;entryX=0.548;entryY=0.009;entryDx=0;entryDy=0;entryPerimeter=0;" edge="1" parent="ARWrC8dbmePqLKVEg40H-1" target="ARWrC8dbmePqLKVEg40H-23">
          <mxGeometry width="50" height="50" relative="1" as="geometry">
            <mxPoint x="450" y="380" as="sourcePoint" />
            <mxPoint x="455.85790186477766" y="440" as="targetPoint" />
          </mxGeometry>
        </mxCell>
        <mxCell id="ARWrC8dbmePqLKVEg40H-27" value="しっかりメモできる&lt;br&gt;内容、つながりとの関係、ジャンル" style="rounded=0;whiteSpace=wrap;html=1;" vertex="1" parent="ARWrC8dbmePqLKVEg40H-1">
          <mxGeometry x="623" y="230" width="347" height="60" as="geometry" />
        </mxCell>
        <mxCell id="ARWrC8dbmePqLKVEg40H-28" value="" style="verticalLabelPosition=bottom;shadow=0;dashed=0;align=center;html=1;verticalAlign=top;strokeWidth=1;shape=mxgraph.mockup.graphics.simpleIcon;strokeColor=#999999;rounded=0;labelBackgroundColor=none;fontFamily=Verdana;fontSize=14;fontColor=#000000;comic=1;" vertex="1" parent="ARWrC8dbmePqLKVEg40H-1">
          <mxGeometry x="327" y="630" width="210" height="110" as="geometry" />
        </mxCell>
        <mxCell id="ARWrC8dbmePqLKVEg40H-29" value="" style="endArrow=none;dashed=1;html=1;exitX=0.543;exitY=0.991;exitDx=0;exitDy=0;exitPerimeter=0;" edge="1" parent="ARWrC8dbmePqLKVEg40H-1" source="ARWrC8dbmePqLKVEg40H-21" target="ARWrC8dbmePqLKVEg40H-28">
          <mxGeometry width="50" height="50" relative="1" as="geometry">
            <mxPoint x="453.95000000000005" y="389.01" as="sourcePoint" />
            <mxPoint x="445.85790186477766" y="430" as="targetPoint" />
          </mxGeometry>
        </mxCell>
        <mxCell id="ARWrC8dbmePqLKVEg40H-30" value="カテゴリ" style="rounded=0;whiteSpace=wrap;html=1;" vertex="1" parent="ARWrC8dbmePqLKVEg40H-1">
          <mxGeometry x="505" y="220" width="90" height="40" as="geometry" />
        </mxCell>
        <mxCell id="ARWrC8dbmePqLKVEg40H-31" value="タイトル" style="rounded=0;whiteSpace=wrap;html=1;" vertex="1" parent="ARWrC8dbmePqLKVEg40H-1">
          <mxGeometry x="380" y="220" width="120" height="40" as="geometry" />
        </mxCell>
        <mxCell id="ARWrC8dbmePqLKVEg40H-32" value="つながりメモ（関係性）" style="rounded=0;whiteSpace=wrap;html=1;" vertex="1" parent="ARWrC8dbmePqLKVEg40H-1">
          <mxGeometry x="320" y="560" width="157" height="40" as="geometry" />
        </mxCell>
        <mxCell id="ARWrC8dbmePqLKVEg40H-33" value="" style="verticalLabelPosition=bottom;shadow=0;dashed=0;align=center;html=1;verticalAlign=top;strokeWidth=1;shape=mxgraph.mockup.graphics.simpleIcon;strokeColor=#999999;rounded=0;labelBackgroundColor=none;fontFamily=Verdana;fontSize=14;fontColor=#000000;comic=1;" vertex="1" parent="ARWrC8dbmePqLKVEg40H-1">
          <mxGeometry x="570" y="630" width="210" height="110" as="geometry" />
        </mxCell>
        <mxCell id="ARWrC8dbmePqLKVEg40H-34" value="" style="endArrow=none;dashed=1;html=1;entryX=0.538;entryY=0;entryDx=0;entryDy=0;entryPerimeter=0;" edge="1" parent="ARWrC8dbmePqLKVEg40H-1" target="ARWrC8dbmePqLKVEg40H-33">
          <mxGeometry width="50" height="50" relative="1" as="geometry">
            <mxPoint x="440" y="530" as="sourcePoint" />
            <mxPoint x="570" y="440.42062895307185" as="targetPoint" />
          </mxGeometry>
        </mxCell>
        <mxCell id="ARWrC8dbmePqLKVEg40H-35" value="" style="endArrow=none;dashed=1;html=1;entryX=0.529;entryY=0.018;entryDx=0;entryDy=0;entryPerimeter=0;" edge="1" parent="ARWrC8dbmePqLKVEg40H-1" source="ARWrC8dbmePqLKVEg40H-22" target="ARWrC8dbmePqLKVEg40H-33">
          <mxGeometry width="50" height="50" relative="1" as="geometry">
            <mxPoint x="450" y="540" as="sourcePoint" />
            <mxPoint x="692.98" y="640" as="targetPoint" />
          </mxGeometry>
        </mxCell>
        <mxCell id="ARWrC8dbmePqLKVEg40H-36" value="つながりメモ（関係性）" style="rounded=0;whiteSpace=wrap;html=1;" vertex="1" parent="ARWrC8dbmePqLKVEg40H-1">
          <mxGeometry x="320" y="760" width="157" height="40" as="geometry" />
        </mxCell>
      </root>
    </mxGraphModel>
  </diagram>
  <diagram name="main 編集" id="uP6a5mPenDr8cfgtMIf_">
    <mxGraphModel dx="987" dy="784" grid="1" gridSize="10" guides="1" tooltips="1" connect="1" arrows="1" fold="1" page="1" pageScale="1" pageWidth="1100" pageHeight="850" background="#ffffff" math="0" shadow="0">
      <root>
        <mxCell id="8tiE2Ap0AA-wA08pPqlC-0" />
        <mxCell id="8tiE2Ap0AA-wA08pPqlC-1" parent="8tiE2Ap0AA-wA08pPqlC-0" />
        <mxCell id="8tiE2Ap0AA-wA08pPqlC-2" value="" style="whiteSpace=wrap;html=1;rounded=0;shadow=0;labelBackgroundColor=none;strokeColor=#000000;strokeWidth=1;fillColor=none;fontFamily=Verdana;fontSize=12;fontColor=#000000;align=center;comic=1;" vertex="1" parent="8tiE2Ap0AA-wA08pPqlC-1">
          <mxGeometry x="30" y="20" width="1060" height="810" as="geometry" />
        </mxCell>
        <mxCell id="8tiE2Ap0AA-wA08pPqlC-3" value="LOGO" style="whiteSpace=wrap;html=1;rounded=0;shadow=0;labelBackgroundColor=none;strokeWidth=1;fontFamily=Verdana;fontSize=28;align=center;comic=1;" vertex="1" parent="8tiE2Ap0AA-wA08pPqlC-1">
          <mxGeometry x="40" y="60" width="190" height="50" as="geometry" />
        </mxCell>
        <mxCell id="8tiE2Ap0AA-wA08pPqlC-4" value="Search" style="strokeWidth=1;shadow=0;dashed=0;align=center;html=1;shape=mxgraph.mockup.forms.searchBox;strokeColor=#999999;mainText=;strokeColor2=#008cff;fontColor=#666666;fontSize=17;align=left;spacingLeft=3;rounded=0;labelBackgroundColor=none;comic=1;" vertex="1" parent="8tiE2Ap0AA-wA08pPqlC-1">
          <mxGeometry x="840" y="95" width="220" height="30" as="geometry" />
        </mxCell>
        <mxCell id="8tiE2Ap0AA-wA08pPqlC-5" value="Topic 1" style="text;html=1;points=[];align=left;verticalAlign=top;spacingTop=-4;fontSize=14;fontFamily=Verdana" vertex="1" parent="8tiE2Ap0AA-wA08pPqlC-1">
          <mxGeometry x="780" y="40" width="60" height="20" as="geometry" />
        </mxCell>
        <mxCell id="8tiE2Ap0AA-wA08pPqlC-6" value="Topic 2" style="text;html=1;points=[];align=left;verticalAlign=top;spacingTop=-4;fontSize=14;fontFamily=Verdana" vertex="1" parent="8tiE2Ap0AA-wA08pPqlC-1">
          <mxGeometry x="860" y="40" width="60" height="20" as="geometry" />
        </mxCell>
        <mxCell id="8tiE2Ap0AA-wA08pPqlC-7" value="Topic 3" style="text;html=1;points=[];align=left;verticalAlign=top;spacingTop=-4;fontSize=14;fontFamily=Verdana" vertex="1" parent="8tiE2Ap0AA-wA08pPqlC-1">
          <mxGeometry x="930" y="40" width="60" height="20" as="geometry" />
        </mxCell>
        <mxCell id="8tiE2Ap0AA-wA08pPqlC-8" value="Topic 4" style="text;html=1;points=[];align=left;verticalAlign=top;spacingTop=-4;fontSize=14;fontFamily=Verdana" vertex="1" parent="8tiE2Ap0AA-wA08pPqlC-1">
          <mxGeometry x="1000" y="40" width="60" height="20" as="geometry" />
        </mxCell>
        <mxCell id="8tiE2Ap0AA-wA08pPqlC-9" value="" style="line;strokeWidth=1;html=1;rounded=0;shadow=0;labelBackgroundColor=none;fillColor=none;fontFamily=Verdana;fontSize=14;fontColor=#000000;align=center;comic=1;" vertex="1" parent="8tiE2Ap0AA-wA08pPqlC-1">
          <mxGeometry x="20" y="140" width="1060" height="10" as="geometry" />
        </mxCell>
        <mxCell id="8tiE2Ap0AA-wA08pPqlC-10" value="" style="whiteSpace=wrap;html=1;rounded=0;shadow=0;labelBackgroundColor=none;strokeWidth=1;fillColor=none;fontFamily=Verdana;fontSize=12;align=center;comic=1;" vertex="1" parent="8tiE2Ap0AA-wA08pPqlC-1">
          <mxGeometry x="30" y="160" width="1040" height="50" as="geometry" />
        </mxCell>
        <mxCell id="8tiE2Ap0AA-wA08pPqlC-11" value="Section 1" style="text;html=1;points=[];align=left;verticalAlign=top;spacingTop=-4;fontSize=14;fontFamily=Verdana" vertex="1" parent="8tiE2Ap0AA-wA08pPqlC-1">
          <mxGeometry x="330" y="175" width="60" height="20" as="geometry" />
        </mxCell>
        <mxCell id="8tiE2Ap0AA-wA08pPqlC-12" value="Section 2" style="text;html=1;points=[];align=left;verticalAlign=top;spacingTop=-4;fontSize=14;fontFamily=Verdana" vertex="1" parent="8tiE2Ap0AA-wA08pPqlC-1">
          <mxGeometry x="477" y="175" width="60" height="20" as="geometry" />
        </mxCell>
        <mxCell id="8tiE2Ap0AA-wA08pPqlC-13" value="Section 3" style="text;html=1;points=[];align=left;verticalAlign=top;spacingTop=-4;fontSize=14;fontFamily=Verdana" vertex="1" parent="8tiE2Ap0AA-wA08pPqlC-1">
          <mxGeometry x="623" y="175" width="60" height="20" as="geometry" />
        </mxCell>
        <mxCell id="8tiE2Ap0AA-wA08pPqlC-14" value="Section 4" style="text;html=1;points=[];align=left;verticalAlign=top;spacingTop=-4;fontSize=14;fontFamily=Verdana" vertex="1" parent="8tiE2Ap0AA-wA08pPqlC-1">
          <mxGeometry x="770" y="175" width="60" height="20" as="geometry" />
        </mxCell>
        <mxCell id="8tiE2Ap0AA-wA08pPqlC-15" value="" style="verticalLabelPosition=bottom;shadow=0;dashed=0;align=center;html=1;verticalAlign=top;strokeWidth=1;shape=mxgraph.mockup.graphics.simpleIcon;strokeColor=#999999;rounded=0;labelBackgroundColor=none;fontFamily=Verdana;fontSize=14;fontColor=#000000;comic=1;" vertex="1" parent="8tiE2Ap0AA-wA08pPqlC-1">
          <mxGeometry x="30" y="250" width="210" height="110" as="geometry" />
        </mxCell>
        <mxCell id="8tiE2Ap0AA-wA08pPqlC-16" value="" style="verticalLabelPosition=bottom;shadow=0;dashed=0;align=center;html=1;verticalAlign=top;strokeWidth=1;shape=mxgraph.mockup.graphics.simpleIcon;strokeColor=#999999;rounded=0;labelBackgroundColor=none;fontFamily=Verdana;fontSize=14;fontColor=#000000;comic=1;" vertex="1" parent="8tiE2Ap0AA-wA08pPqlC-1">
          <mxGeometry x="50" y="530" width="210" height="110" as="geometry" />
        </mxCell>
        <mxCell id="8tiE2Ap0AA-wA08pPqlC-17" value="" style="verticalLabelPosition=bottom;shadow=0;dashed=0;align=center;html=1;verticalAlign=top;strokeWidth=1;shape=mxgraph.mockup.graphics.simpleIcon;strokeColor=#999999;rounded=0;labelBackgroundColor=none;fontFamily=Verdana;fontSize=14;fontColor=#000000;comic=1;" vertex="1" parent="8tiE2Ap0AA-wA08pPqlC-1">
          <mxGeometry x="30" y="380" width="210" height="110" as="geometry" />
        </mxCell>
        <mxCell id="8tiE2Ap0AA-wA08pPqlC-18" value="カテゴリ" style="rounded=0;whiteSpace=wrap;html=1;" vertex="1" parent="8tiE2Ap0AA-wA08pPqlC-1">
          <mxGeometry x="170" y="530" width="90" height="40" as="geometry" />
        </mxCell>
        <mxCell id="8tiE2Ap0AA-wA08pPqlC-19" value="タイトル" style="rounded=0;whiteSpace=wrap;html=1;" vertex="1" parent="8tiE2Ap0AA-wA08pPqlC-1">
          <mxGeometry x="50" y="530" width="120" height="40" as="geometry" />
        </mxCell>
        <mxCell id="8tiE2Ap0AA-wA08pPqlC-20" value="" style="verticalLabelPosition=bottom;shadow=0;dashed=0;align=center;html=1;verticalAlign=top;strokeWidth=1;shape=mxgraph.mockup.graphics.simpleIcon;strokeColor=#999999;rounded=0;labelBackgroundColor=none;fontFamily=Verdana;fontSize=14;fontColor=#000000;comic=1;" vertex="1" parent="8tiE2Ap0AA-wA08pPqlC-1">
          <mxGeometry x="340" y="270" width="210" height="110" as="geometry" />
        </mxCell>
        <mxCell id="8tiE2Ap0AA-wA08pPqlC-21" value="" style="verticalLabelPosition=bottom;shadow=0;dashed=0;align=center;html=1;verticalAlign=top;strokeWidth=1;shape=mxgraph.mockup.graphics.simpleIcon;strokeColor=#999999;rounded=0;labelBackgroundColor=none;fontFamily=Verdana;fontSize=14;fontColor=#000000;comic=1;" vertex="1" parent="8tiE2Ap0AA-wA08pPqlC-1">
          <mxGeometry x="320" y="420" width="210" height="110" as="geometry" />
        </mxCell>
        <mxCell id="8tiE2Ap0AA-wA08pPqlC-22" value="" style="verticalLabelPosition=bottom;shadow=0;dashed=0;align=center;html=1;verticalAlign=top;strokeWidth=1;shape=mxgraph.mockup.graphics.simpleIcon;strokeColor=#999999;rounded=0;labelBackgroundColor=none;fontFamily=Verdana;fontSize=14;fontColor=#000000;comic=1;" vertex="1" parent="8tiE2Ap0AA-wA08pPqlC-1">
          <mxGeometry x="560" y="420" width="210" height="110" as="geometry" />
        </mxCell>
        <mxCell id="8tiE2Ap0AA-wA08pPqlC-23" value="" style="verticalLabelPosition=bottom;shadow=0;dashed=0;align=center;html=1;verticalAlign=top;strokeWidth=1;shape=mxgraph.mockup.graphics.simpleIcon;strokeColor=#999999;rounded=0;labelBackgroundColor=none;fontFamily=Verdana;fontSize=14;fontColor=#000000;comic=1;" vertex="1" parent="8tiE2Ap0AA-wA08pPqlC-1">
          <mxGeometry x="800" y="420" width="210" height="110" as="geometry" />
        </mxCell>
        <mxCell id="8tiE2Ap0AA-wA08pPqlC-24" value="" style="endArrow=none;dashed=1;html=1;exitX=0.495;exitY=0.991;exitDx=0;exitDy=0;exitPerimeter=0;" edge="1" parent="8tiE2Ap0AA-wA08pPqlC-1" source="8tiE2Ap0AA-wA08pPqlC-20" target="8tiE2Ap0AA-wA08pPqlC-21">
          <mxGeometry width="50" height="50" relative="1" as="geometry">
            <mxPoint x="590" y="430" as="sourcePoint" />
            <mxPoint x="640" y="380" as="targetPoint" />
          </mxGeometry>
        </mxCell>
        <mxCell id="8tiE2Ap0AA-wA08pPqlC-25" value="" style="endArrow=none;dashed=1;html=1;exitX=0.471;exitY=0.991;exitDx=0;exitDy=0;exitPerimeter=0;" edge="1" parent="8tiE2Ap0AA-wA08pPqlC-1" source="8tiE2Ap0AA-wA08pPqlC-20" target="8tiE2Ap0AA-wA08pPqlC-22">
          <mxGeometry width="50" height="50" relative="1" as="geometry">
            <mxPoint x="453.95000000000005" y="389.01" as="sourcePoint" />
            <mxPoint x="445.85790186477766" y="430" as="targetPoint" />
          </mxGeometry>
        </mxCell>
        <mxCell id="8tiE2Ap0AA-wA08pPqlC-26" value="" style="endArrow=none;dashed=1;html=1;entryX=0.548;entryY=0.009;entryDx=0;entryDy=0;entryPerimeter=0;" edge="1" parent="8tiE2Ap0AA-wA08pPqlC-1" target="8tiE2Ap0AA-wA08pPqlC-23">
          <mxGeometry width="50" height="50" relative="1" as="geometry">
            <mxPoint x="450" y="380" as="sourcePoint" />
            <mxPoint x="455.85790186477766" y="440" as="targetPoint" />
          </mxGeometry>
        </mxCell>
        <mxCell id="8tiE2Ap0AA-wA08pPqlC-27" value="しっかりメモできる&lt;br&gt;内容、つながりとの関係、ジャンル" style="rounded=0;whiteSpace=wrap;html=1;" vertex="1" parent="8tiE2Ap0AA-wA08pPqlC-1">
          <mxGeometry x="623" y="230" width="347" height="60" as="geometry" />
        </mxCell>
        <mxCell id="8tiE2Ap0AA-wA08pPqlC-28" value="" style="verticalLabelPosition=bottom;shadow=0;dashed=0;align=center;html=1;verticalAlign=top;strokeWidth=1;shape=mxgraph.mockup.graphics.simpleIcon;strokeColor=#999999;rounded=0;labelBackgroundColor=none;fontFamily=Verdana;fontSize=14;fontColor=#000000;comic=1;" vertex="1" parent="8tiE2Ap0AA-wA08pPqlC-1">
          <mxGeometry x="327" y="630" width="210" height="110" as="geometry" />
        </mxCell>
        <mxCell id="8tiE2Ap0AA-wA08pPqlC-29" value="" style="endArrow=none;dashed=1;html=1;exitX=0.543;exitY=0.991;exitDx=0;exitDy=0;exitPerimeter=0;" edge="1" parent="8tiE2Ap0AA-wA08pPqlC-1" source="8tiE2Ap0AA-wA08pPqlC-21" target="8tiE2Ap0AA-wA08pPqlC-28">
          <mxGeometry width="50" height="50" relative="1" as="geometry">
            <mxPoint x="453.95000000000005" y="389.01" as="sourcePoint" />
            <mxPoint x="445.85790186477766" y="430" as="targetPoint" />
          </mxGeometry>
        </mxCell>
        <mxCell id="8tiE2Ap0AA-wA08pPqlC-30" value="カテゴリ" style="rounded=0;whiteSpace=wrap;html=1;" vertex="1" parent="8tiE2Ap0AA-wA08pPqlC-1">
          <mxGeometry x="505" y="220" width="90" height="40" as="geometry" />
        </mxCell>
        <mxCell id="8tiE2Ap0AA-wA08pPqlC-31" value="タイトル" style="rounded=0;whiteSpace=wrap;html=1;" vertex="1" parent="8tiE2Ap0AA-wA08pPqlC-1">
          <mxGeometry x="380" y="220" width="120" height="40" as="geometry" />
        </mxCell>
        <mxCell id="8tiE2Ap0AA-wA08pPqlC-32" value="つながりメモ（関係性）" style="rounded=0;whiteSpace=wrap;html=1;" vertex="1" parent="8tiE2Ap0AA-wA08pPqlC-1">
          <mxGeometry x="320" y="560" width="157" height="40" as="geometry" />
        </mxCell>
        <mxCell id="8tiE2Ap0AA-wA08pPqlC-33" value="" style="verticalLabelPosition=bottom;shadow=0;dashed=0;align=center;html=1;verticalAlign=top;strokeWidth=1;shape=mxgraph.mockup.graphics.simpleIcon;strokeColor=#999999;rounded=0;labelBackgroundColor=none;fontFamily=Verdana;fontSize=14;fontColor=#000000;comic=1;" vertex="1" parent="8tiE2Ap0AA-wA08pPqlC-1">
          <mxGeometry x="570" y="630" width="210" height="110" as="geometry" />
        </mxCell>
        <mxCell id="8tiE2Ap0AA-wA08pPqlC-34" value="" style="endArrow=none;dashed=1;html=1;entryX=0.538;entryY=0;entryDx=0;entryDy=0;entryPerimeter=0;" edge="1" parent="8tiE2Ap0AA-wA08pPqlC-1" target="8tiE2Ap0AA-wA08pPqlC-33">
          <mxGeometry width="50" height="50" relative="1" as="geometry">
            <mxPoint x="440" y="530" as="sourcePoint" />
            <mxPoint x="570" y="440.42062895307185" as="targetPoint" />
          </mxGeometry>
        </mxCell>
        <mxCell id="8tiE2Ap0AA-wA08pPqlC-35" value="" style="endArrow=none;dashed=1;html=1;entryX=0.529;entryY=0.018;entryDx=0;entryDy=0;entryPerimeter=0;" edge="1" parent="8tiE2Ap0AA-wA08pPqlC-1" source="8tiE2Ap0AA-wA08pPqlC-22" target="8tiE2Ap0AA-wA08pPqlC-33">
          <mxGeometry width="50" height="50" relative="1" as="geometry">
            <mxPoint x="450" y="540" as="sourcePoint" />
            <mxPoint x="692.98" y="640" as="targetPoint" />
          </mxGeometry>
        </mxCell>
        <mxCell id="8tiE2Ap0AA-wA08pPqlC-36" value="つながりメモ（関係性）" style="rounded=0;whiteSpace=wrap;html=1;" vertex="1" parent="8tiE2Ap0AA-wA08pPqlC-1">
          <mxGeometry x="320" y="760" width="157" height="40" as="geometry" />
        </mxCell>
      </root>
    </mxGraphModel>
  </diagram>
  <diagram name="Copy of Page-6" id="hXRwLp1pgDyaAv2WBGmf">
    <mxGraphModel dx="1382" dy="784" grid="1" gridSize="10" guides="1" tooltips="1" connect="1" arrows="1" fold="1" page="1" pageScale="1" pageWidth="827" pageHeight="1169" math="0" shadow="0">
      <root>
        <mxCell id="HTnSKyJTJsRCtdYt0Xss-0" />
        <mxCell id="HTnSKyJTJsRCtdYt0Xss-1" parent="HTnSKyJTJsRCtdYt0Xss-0" />
      </root>
    </mxGraphModel>
  </diagram>
</mxfile>
